<svg width="1851" height="925" viewBox="0 0 1851 925" fill="none" xmlns="http://www.w3.org/2000/svg">
<g clip-path="url(#clip0_2105_16874)">
<rect width="1851" height="925" fill="#523E9E" fill-opacity="0.61"/>
<path d="M-66.2591 753.161C21.3581 481.159 -178.686 502.487 -289.661 547.152C-383.959 638.992 -513.112 563.147 -501.723 480.509C-490.334 397.871 -453.257 334.931 -376.984 298.046C-300.71 261.16 -56.37 441.085 -57.9637 249.951C-59.5575 58.8171 10.3504 -306.834 407.111 -159.905C803.871 -12.9766 460.093 350.292 368.817 369.269C277.54 388.245 99.6896 444.383 176.059 649.685C252.428 854.987 -175.781 1093.16 -66.2591 753.161Z" fill="#7161AA" fill-opacity="0.87"/>
<path d="M1210.54 1145.34C1193.37 982.238 1091.31 971.256 1042.43 986.153C675.244 1099.33 1224.95 525.78 1290.41 729.883C1355.88 933.987 1728.35 622.486 2082.41 665.602C2436.46 708.718 2300.64 1363.66 2022.32 1324.27C1744.01 1284.89 1818.48 1201.65 1555.59 1346.54C1292.69 1491.43 1231.99 1349.21 1210.54 1145.34Z" fill="#7465AC"/>
<path d="M1147.54 37.3372C1130.37 -125.762 1028.31 -136.744 979.432 -121.847C612.244 -8.66947 1161.95 -582.22 1227.41 -378.117C1292.88 -174.013 1665.35 -485.514 2019.41 -442.398C2373.46 -399.282 2237.64 255.656 1959.32 216.272C1681.01 176.888 1755.48 93.646 1492.59 238.54C1229.69 383.434 1168.99 241.211 1147.54 37.3372Z" fill="#7465AC"/>
<path d="M2059.01 -72.9746C1800.35 -19.9415 1908.37 131.339 1994.71 200.351C2111.44 234.518 2109.06 372.888 2037.4 401.256C1965.73 429.623 1898.24 428.374 1833.92 383.752C1769.6 339.13 1803.41 60.8032 1650.33 148.893C1497.26 236.983 1171.29 346.798 1109.32 -39.1896C1047.35 -425.177 1495.79 -313.539 1552.51 -248.711C1609.24 -183.882 1735.18 -66.2691 1865.7 -220.962C1996.21 -375.655 2382.34 -139.266 2059.01 -72.9746Z" stroke="white" stroke-opacity="0.2" stroke-width="2.99533"/>
<path d="M1146.21 1017.98C1361.62 992.481 1316.49 1138.37 1267 1214.5C1184.81 1271.31 1222.43 1378.6 1285.65 1382.19C1348.86 1385.79 1401.16 1367.37 1439.79 1315.95C1478.41 1264.53 1380.11 1056.23 1522.24 1085.36C1664.37 1114.48 1946.95 1115.86 1895.5 798.855C1844.05 481.852 1523.23 684.817 1495.75 750.031C1468.27 815.244 1400.46 939.511 1258.71 852.619C1116.95 765.727 876.953 1049.86 1146.21 1017.98Z" stroke="white" stroke-opacity="0.2" stroke-width="2.46067"/>
<path d="M287.555 552.413C-3.76439 707.968 179.547 850.973 307.617 903.031C459.738 902.504 506.087 1069.27 430.232 1128.77C354.377 1188.27 273.01 1210.76 180.015 1180.12C87.0199 1149.48 28.6072 803.706 -123.633 963.759C-275.873 1123.81 -627.722 1371.39 -839.26 930.566C-1050.8 489.741 -473.361 464.181 -382.292 521.752C-291.223 579.324 -98.3807 675.583 3.1275 443.682C104.636 211.782 651.704 357.969 287.555 552.413Z" stroke="white" stroke-opacity="0.21" stroke-width="3.74637"/>
</g>
<defs>
<clipPath id="clip0_2105_16874">
<rect width="1851" height="925" fill="white"/>
</clipPath>
</defs>
</svg>
