<svg width="22" height="22" viewBox="0 0 22 22" fill="none" xmlns="http://www.w3.org/2000/svg">
<path d="M21.7809 6.59941C21.7809 6.59941 21.566 5.08262 20.9043 4.4166C20.0664 3.54004 19.1297 3.53574 18.7 3.48418C15.6234 3.26074 11.0043 3.26074 11.0043 3.26074H10.9957C10.9957 3.26074 6.37656 3.26074 3.3 3.48418C2.87031 3.53574 1.93359 3.54004 1.0957 4.4166C0.433984 5.08262 0.223438 6.59941 0.223438 6.59941C0.223438 6.59941 0 8.38262 0 10.1615V11.8287C0 13.6076 0.219141 15.3908 0.219141 15.3908C0.219141 15.3908 0.433984 16.9076 1.09141 17.5736C1.9293 18.4502 3.0293 18.4201 3.51914 18.5146C5.28086 18.6822 11 18.7338 11 18.7338C11 18.7338 15.6234 18.7252 18.7 18.5061C19.1297 18.4545 20.0664 18.4502 20.9043 17.5736C21.566 16.9076 21.7809 15.3908 21.7809 15.3908C21.7809 15.3908 22 13.6119 22 11.8287V10.1615C22 8.38262 21.7809 6.59941 21.7809 6.59941ZM8.72695 13.8525V7.66934L14.6695 10.7717L8.72695 13.8525Z" fill="white"/>
</svg>
